<?xml version="1.0" encoding="utf-8" ?>
<svg baseProfile="full" height="200mm" version="1.1" viewBox="0,0,200,200" width="200mm" xmlns="http://www.w3.org/2000/svg" xmlns:ev="http://www.w3.org/2001/xml-events" xmlns:xlink="http://www.w3.org/1999/xlink"><defs /><rect fill="#1a1a1a" height="200" width="200" x="0" y="0" /><text alignment-baseline="middle" fill="#e1ed5e" style="dominant-baseline: central; font-size:9.0px; font-family:Arial;" text-anchor="middle" x="100.0" y="100.0">2023</text><line stroke="#e1ed5e" stroke-width="0.3" x1="100.0" x2="100.0" y1="15.0" y2="10.0" /><path d="M 100.0 14.0 a86.0,86.0 0 0,1 42.46469731375804,11.215312516191453" fill="none" id="id85" stroke="none" /><text fill="#e1ed5e" style="font-size:6.75px; font-family:Arial;" text-anchor="middle"><textPath startOffset="22.20632615414155" xlink:href="#id85">January</textPath></text><line stroke="#e1ed5e" stroke-width="0.3" x1="143.23703022742887" x2="145.7803849466894" y1="26.81831364943548" y2="22.513508569990506" /><path d="M 143.74570117128098 25.957352633546492 a86.0,86.0 0 0,1 28.547481713284135,27.462654790039103" fill="none" id="id86" stroke="none" /><text fill="#e1ed5e" style="font-size:6.75px; font-family:Arial;" text-anchor="middle"><textPath startOffset="19.985693538727396" xlink:href="#id86">February</textPath></text><path d="M 117.45458315368197 88.32363383020206 l 21.45555502452493 -14.352844444168486 a46.81365888534431,46.81365888534431 0 0,0 0.4422851159075564,0.6736305749648623 l -21.699436775790414 13.98139580522595" fill="#f4ff19" stroke="none" /><line stroke="#e1ed5e" stroke-width="0.3" x1="172.23445277983987" x2="176.4835382374775" y1="55.19839476539836" y2="52.563006222186495" /><path d="M 173.08426987136738 54.67131705675599 a86.0,86.0 0 0,1 12.851231095245387,41.99856678651699" fill="none" id="id87" stroke="none" /><text fill="#e1ed5e" style="font-size:6.75px; font-family:Arial;" text-anchor="middle"><textPath startOffset="22.20632615414155" xlink:href="#id87">March</textPath></text><path d="M 118.3937258080291 89.86733742301442 l 14.926871448771864 -8.222855624738257 a38.04191438405469,38.04191438405469 0 0,0 0.31102326618889403,0.5762788760002987 l -15.066202814179222 7.964695765405499" fill="#ff8c0c" stroke="none" /><path d="M 118.73160827565052 90.50648371742162 l 22.831680236760402 -11.571506562416657 a46.59658935400822,46.59658935400822 0 0,0 0.3564416909639639,0.7185646986165465 l -23.027481940677774 11.176782275301159" fill="#f7ff18" stroke="none" /><path d="M 119.47837535516314 92.15188598940014 l 28.054149000376807 -11.303414982551509 a51.2457016186286,51.2457016186286 0 0,0 0.3226196330866898,0.8210317764000622 l -28.244562183345195 10.818834201255664" fill="#baff1f" stroke="none" /><path d="M 119.7369772167798 92.82701384747503 l 12.859895813583908 -4.673656638531666 a34.68283547774817,34.68283547774817 0 0,0 0.19909090312489425,0.562856793003419 l -12.93843979751861 4.451602219101632" fill="#ff5808" stroke="none" /><path d="M 120.28053869075195 94.5502522615342 l 19.936436440817626 -5.357281237108231 a41.64369056666547,41.64369056666547 0 0,0 0.180066659900538,0.6938702944101841 l -20.025699432588468 5.013314517149197" fill="#ffc111" stroke="none" /><path d="M 120.6074358757038 95.95851677861258 l 20.21636718746289 -3.9647877241179694 a41.60148159612902,41.60148159612902 0 0,0 0.131766306316373,0.703900877197256 l -20.28161921768912 3.6162087694581504" fill="#ffc011" stroke="none" /><path d="M 120.87857604477298 97.74499172005257 l 12.739233300386326 -1.3759116766847272 a33.81332111607718,33.81332111607718 0 0,0 0.05751947716647944,0.5792132854095897 l -12.761029903235034 1.1564228605707025" fill="#ff4b06" stroke="none" /><line stroke="#e1ed5e" stroke-width="0.3" x1="184.98032266829074" x2="189.97916517819016" y1="98.17113171792111" y2="98.06355123074" /><path d="M 185.9800911702706 98.14961562048488 a86.0,86.0 0 0,1 -9.607161424134198,41.387399972396054" fill="none" id="id88" stroke="none" /><text fill="#e1ed5e" style="font-size:6.75px; font-family:Arial;" text-anchor="middle"><textPath startOffset="21.466115282336823" xlink:href="#id88">April</textPath></text><path d="M 120.99980553446 99.90962569577887 l 22.70708481961632 -0.09772171404613819 a43.70729509515931,43.70729509515931 0 0,0 -0.0032378836880014757,0.7523701385835557 l -22.705402638638816 -0.29315790274110226" fill="#ffdf14" stroke="none" /><path d="M 120.89721153311464 102.0752229133903 l 11.613533623797148 1.153296029154011 a32.67065786328814,32.67065786328814 0 0,0 -0.060390464128543216,0.5591406953575866 l -11.591960858167553 -1.353033046396389" fill="#ff3905" stroke="none" /><path d="M 120.8583938346157 102.4346265915055 l 35.51264617938965 4.145095418592738 a56.753739030928735,56.753739030928735 0 0,0 -0.12161107623762102,0.9693599318190784 l -35.43603359390518 -4.755773104699211" fill="#75ff27" stroke="none" /><path d="M 120.49622156327973 104.57218783832717 l 10.86403762274994 2.4234915952927305 a32.13106576123691,32.13106576123691 0 0,0 -0.12506548244627122,0.5387788251107576 l -10.820711574373115 -2.610139077752053" fill="#ff3004" stroke="none" /><path d="M 120.41448212921028 104.9243191809786 l 7.958915547030642 1.9198253592704735 a29.187189144930272,29.187189144930272 0 0,0 -0.12201452259309024,0.4873873656842653 l -7.924689710142491 -2.0565405643521344" fill="#ff0000" stroke="none" /><path d="M 118.81262510543309 109.33194174019688 l 56.43787531629926 27.995825220590632 a84.0,84.0 0 0,0 -0.6536853208549238,1.2897831531892228 l -55.94761132565807 -28.96316258548255" fill="#4dd2ff" stroke="none" /><line stroke="#e1ed5e" stroke-width="0.3" x1="174.80103733775053" x2="179.2010983576182" y1="140.37084112569926" y2="142.7455964860345" /><path d="M 175.68104954172406 140.8457921977663 a86.0,86.0 0 0,1 -30.038265399797805,32.042727171017184" fill="none" id="id89" stroke="none" /><text fill="#e1ed5e" style="font-size:6.75px; font-family:Arial;" text-anchor="middle"><textPath startOffset="22.206326154141568" xlink:href="#id89">May</textPath></text><path d="M 118.48025628344425 109.97397251340804 l 48.161087413749264 25.99300327403528 a75.727749451981,75.727749451981 0 0,0 -0.6289859982652859,1.1417922881848404 l -47.706525006032464 -26.818166080617925" fill="#41ffd2" stroke="none" /><path d="M 115.56566222782051 114.09645910891815 l 11.818643547029312 10.703111955353371 a36.94480921242289,36.94480921242289 0 0,0 -0.43094112964265374,0.4677014843203196 l -11.632656009390935 -10.904964694475025" fill="#ff7b0b" stroke="none" /><path d="M 112.04921762599082 117.19931262002967 l 8.882303015004299 12.678790530877198 a36.48053733486715,36.48053733486715 0 0,0 -0.5174036614499072,0.3558749562837189 l -8.662742468931508 -12.82980627652601" fill="#ff740a" stroke="none" /><line stroke="#e1ed5e" stroke-width="0.3" x1="143.8653032363475" x2="146.44561519142675" y1="172.8068346515853" y2="177.08958963109032" /><path d="M 144.38136562736335 173.6633856474863 a86.0,86.0 0 0,1 -40.68145358897372,12.25698825130547" fill="none" id="id90" stroke="none" /><text fill="#e1ed5e" style="font-size:6.75px; font-family:Arial;" text-anchor="middle"><textPath startOffset="21.466115282336833" xlink:href="#id90">June</textPath></text><path d="M 108.59647513512805 119.15986991738527 l 4.7802087125821595 10.654154833388192 a32.677388858373064,32.677388858373064 0 0,0 -0.5151813265322089,0.2258403537681328 l -4.5961067113921965 -10.73485974045078" fill="#ff3905" stroke="none" /><path d="M 106.2309692047433 120.05430185196036 l 3.4470566577901782 11.09431172657861 a32.617484766011756,32.617484766011756 0 0,0 -0.5376060832538434,0.16197630283443595 l -3.255575600096089 -11.15200339851877" fill="#ff3805" stroke="none" /><path d="M 103.06178313531738 120.77559828337769 l 3.1431039995951178 21.32739752376259 a42.55775934295736,42.55775934295736 0 0,0 -0.72565318304117,0.1005689190026434 l -2.7755222253671175 -21.378341008257834" fill="#ffce13" stroke="none" /><path d="M 102.34483914955558 120.86867818915974 l 2.0809720743673434 18.520305134290734 a39.63684917150784,39.63684917150784 0 0,0 -0.6786723302540212,0.07034716195456887 l -1.7618671475077197 -18.55338166470106" fill="#ffa40f" stroke="none" /><line stroke="#e1ed5e" stroke-width="0.3" x1="102.19456741930631" x2="102.32365962044197" y1="184.97166512339345" y2="189.96999836594603" /><path d="M 102.22038585953345 185.97133177190398 a86.0,86.0 0 0,1 -42.740103519485714,-10.115201625700543" fill="none" id="id91" stroke="none" /><text fill="#e1ed5e" style="font-size:6.75px; font-family:Arial;" text-anchor="middle"><textPath startOffset="22.20632615414155" xlink:href="#id91">July</textPath></text><path d="M 98.37488393609728 120.93702456842531 l -0.9980243241487572 12.85794920050673 a33.89662398437685,33.89662398437685 0 0,0 -0.5813362732072223,-0.050160139787785815 l 1.219204915097521 -12.838864808440281" fill="#ff4c07" stroke="none" /><path d="M 95.16358092515715 120.4354850818985 l -3.26554905456055 13.798034859261698 a35.17919520301284,35.17919520301284 0 0,0 -0.5880733772092887,-0.14453412836386006 l 3.502575716513049 -13.739779472583809" fill="#ff6008" stroke="none" /><line stroke="#e1ed5e" stroke-width="0.3" x1="58.666819895761336" x2="56.23545636021788" y1="174.27360380694188" y2="178.64263932499728" /><path d="M 58.180547188652646 175.14741091055294 a86.0,86.0 0 0,1 -31.652253787137756,-30.449443065178592" fill="none" id="id92" stroke="none" /><text fill="#e1ed5e" style="font-size:6.75px; font-family:Arial;" text-anchor="middle"><textPath startOffset="22.20632615414155" xlink:href="#id92">August</textPath></text><line stroke="#e1ed5e" stroke-width="0.3" x1="26.63291911575756" x2="22.317208475507996" y1="142.92168965132927" y2="145.44649492493687" /><path d="M 25.769776987707644 143.4266507060508 a86.0,86.0 0 0,1 -11.730757126820373,-40.83630448921669" fill="none" id="id93" stroke="none" /><text fill="#e1ed5e" style="font-size:6.75px; font-family:Arial;" text-anchor="middle"><textPath startOffset="21.46611528233685" xlink:href="#id93">September</textPath></text><line stroke="#e1ed5e" stroke-width="0.3" x1="15.007084014347285" x2="10.007500721073583" y1="101.09737516637583" y2="101.16192664675087" /><path d="M 14.007167355692545 101.11028546245083 a86.0,86.0 0 0,1 10.666146001902534,-42.60595125391555" fill="none" id="id94" stroke="none" /><text fill="#e1ed5e" style="font-size:6.75px; font-family:Arial;" text-anchor="middle"><textPath startOffset="22.20632615414155" xlink:href="#id94">October</textPath></text><line stroke="#e1ed5e" stroke-width="0.3" x1="26.266209847984243" x2="21.928928074336255" y1="57.711370442889674" y2="55.22380399835377" /><path d="M 25.398753493254645 57.213857153982495 a86.0,86.0 0 0,1 29.58750427330803,-30.492523968695096" fill="none" id="id95" stroke="none" /><text fill="#e1ed5e" style="font-size:6.75px; font-family:Arial;" text-anchor="middle"><textPath startOffset="21.46611528233685" xlink:href="#id95">November</textPath></text><line stroke="#e1ed5e" stroke-width="0.3" x1="56.762969772571076" x2="54.21961505331055" y1="26.818313649435495" y2="22.513508569990535" /><path d="M 56.25429882871897 25.957352633546506 a86.0,86.0 0 0,1 42.265352541879196,-11.944610805530505" fill="none" id="id96" stroke="none" /><text fill="#e1ed5e" style="font-size:6.75px; font-family:Arial;" text-anchor="middle"><textPath startOffset="22.20632615414155" xlink:href="#id96">December</textPath></text></svg>