<?xml version="1.0" encoding="utf-8" ?>
<svg baseProfile="full" height="200mm" version="1.1" viewBox="0,0,200,200" width="200mm" xmlns="http://www.w3.org/2000/svg" xmlns:ev="http://www.w3.org/2001/xml-events" xmlns:xlink="http://www.w3.org/1999/xlink"><defs /><rect fill="#1a1a1a" height="200" width="200" x="0" y="0" /><text alignment-baseline="middle" fill="#e1ed5e" style="dominant-baseline: central; font-size:9.0px; font-family:Arial;" text-anchor="middle" x="100.0" y="100.0">2024</text><line stroke="#e1ed5e" stroke-width="0.3" x1="100.0" x2="100.0" y1="15.0" y2="10.0" /><path d="M 100.0 14.0 a86.0,86.0 0 0,1 42.35913384403234,11.155469271406648" fill="none" id="id97" stroke="none" /><text fill="#e1ed5e" style="font-size:6.75px; font-family:Arial;" text-anchor="middle"><textPath startOffset="22.145653131862478" xlink:href="#id97">January</textPath></text><path d="M 102.15924093988457 79.11130261209362 l 1.349596679486929 -13.056123618623502 a34.12569141577161,34.12569141577161 0 0,0 0.5821909555867071,0.0652357109076164 l -1.5735235366744327 13.031032147208915" fill="#ff810b" stroke="none" /><path d="M 104.64783097203109 79.52079915486377 l 2.90146440354868 -12.784387518146056 a34.10950265643929,34.10950265643929 0 0,0 0.5699013206699298,0.13449515991725816 l -3.120497877958495 12.732696214582571" fill="#ff810b" stroke="none" /><path d="M 107.06938296918511 80.22567764915836 l 4.704413012508795 -13.159080472275795 a34.97472363476617,34.97472363476617 0 0,0 0.5636107569477979,0.20696567677366573 l -4.929612921110717 13.076383946493406" fill="#ff8d0d" stroke="none" /><path d="M 108.4095320186766 80.7573450057729 l 14.16007709400978 -32.40102750147656 a56.360067398970564,56.360067398970564 0 0,0 0.8832067997692608,0.395047167599827 l -14.714197296634673 32.15317658296688" fill="#65ff29" stroke="none" /><path d="M 109.3889696526874 81.21577127319529 l 8.576365263956006 -17.158475607242046 a40.18247445730377,40.18247445730377 0 0,0 0.6143570815442703,0.31369510330401956 l -8.869649567213855 17.008722552265194" fill="#ffd413" stroke="none" /><line stroke="#e1ed5e" stroke-width="0.3" x1="143.13028292997686" x2="145.6673583964461" y1="26.7553504044142" y2="22.446841604673864" /><path d="M 143.63769802327073 25.89364864446614 a86.0,86.0 0 0,1 29.32050498858742,28.57503671076993" fill="none" id="id98" stroke="none" /><text fill="#e1ed5e" style="font-size:6.75px; font-family:Arial;" text-anchor="middle"><textPath startOffset="20.669276256404974" xlink:href="#id98">February</textPath></text><path d="M 113.59037401385872 83.9905735841838 l 5.808398896701166 -6.842279295302691 a29.975203824879255,29.975203824879255 0 0,0 0.38942146198656474,0.33637298389994114 l -5.92499983845059 6.741562178938031" fill="#ff4506" stroke="none" /><path d="M 114.91283532996326 85.21462403516908 l 9.949423707288068 -9.8643864088063 a35.01060852816138,35.01060852816138 0 0,0 0.4194824383536835,0.43042593613670754 l -10.117292946792563 9.692137780601852" fill="#ff8e0d" stroke="none" /><path d="M 115.16444852881244 85.47280134310134 l 12.830451014074297 -12.29128183493929 a38.767838427070096,38.767838427070096 0 0,0 0.4562497669478867,0.4845214416512633 l -13.039556614758444 12.069218933343533" fill="#ffc112" stroke="none" /><line stroke="#e1ed5e" stroke-width="0.3" x1="172.87174338648825" x2="177.1583165268699" y1="56.24261187166439" y2="53.66864786411523" /><path d="M 173.72905801456457 55.72781907015455 a86.0,86.0 0 0,1 12.242430191666344,42.057860355516425" fill="none" id="id99" stroke="none" /><text fill="#e1ed5e" style="font-size:6.75px; font-family:Arial;" text-anchor="middle"><textPath startOffset="22.145653131862474" xlink:href="#id99">March</textPath></text><path d="M 119.0197475246899 91.09779779509293 l 7.951944804098026 -3.7219116855493053 a29.779866329418123,29.779866329418123 0 0,0 0.21273536114060454,0.46486515671224815 l -8.014664630093682 3.584857546622373" fill="#ff4206" stroke="none" /><path d="M 119.31412917781788 91.75594674310238 l 11.457023019540316 -4.890321850341041 a33.457071255724586,33.457071255724586 0 0,0 0.22093481431763384,0.5301631258672298 l -11.539283678394431 4.692926215032533" fill="#ff780b" stroke="none" /><path d="M 119.83427380445688 93.10060997987247 l 9.423935876955667 -3.2781340915632318 a30.97781191119783,30.97781191119783 0 0,0 0.17039947064440894,0.5037557569584966 l -9.47882076917244 3.115876660130574" fill="#ff5407" stroke="none" /><path d="M 120.9064616781168 98.02013634271609 l 7.938255561086337 -0.7517610550080652 a28.973772384320046,28.973772384320046 0 0,0 0.04264163529426541,0.49556043897981156 l -7.9499908190783435 0.6153795686525917" fill="#ff3605" stroke="none" /><line stroke="#e1ed5e" stroke-width="0.3" x1="184.99686870605535" x2="189.99668451229388" y1="99.2704041080226" y2="99.22748670261217" /><path d="M 185.99683186730306 99.26182062694052 a86.0,86.0 0 0,1 -10.086455211305974,41.156179273409016" fill="none" id="id100" stroke="none" /><text fill="#e1ed5e" style="font-size:6.75px; font-family:Arial;" text-anchor="middle"><textPath startOffset="21.40746469413373" xlink:href="#id100">April</textPath></text><path d="M 120.98066250479742 100.90099992219065 l 11.101571081302069 0.47674922935154684 a32.11180319754133,32.11180319754133 0 0,0 -0.02837828700141497,0.5505311865071509 l -11.09175120484408 -0.6672522092354285" fill="#ff6409" stroke="none" /><path d="M 120.82617615685814 102.69636545807757 l 12.187789593932244 1.5779533709828135 a33.289513905234784,33.289513905234784 0 0,0 -0.07823905011594834,0.5660987918997709 l -12.158906027261086 -1.7869404710826695" fill="#ff750a" stroke="none" /><path d="M 120.05942366710727 106.21446072829308 l 12.513870948706128 3.876829208068491 a34.100640092354425,34.100640092354425 0 0,0 -0.1780301604144198,0.5576769418409346 l -12.445476072514452 -4.091075183600809" fill="#ff810b" stroke="none" /><path d="M 119.94978838288452 106.5578916946017 l 15.29042154278989 5.0262652674776 a37.09535130077206,37.09535130077206 0 0,0 -0.20405018414922413,0.6032381120955443 l -15.201885937068301 -5.2880050540473045" fill="#ffab0f" stroke="none" /><path d="M 119.16976305983485 108.57439118712176 l 57.509289179504535 25.723173561365286 a84.0,84.0 0 0,0 -0.6000621405797757,1.3112440711412445 l -57.05924257406971 -26.70660661472122" fill="#4dd2ff" stroke="none" /><line stroke="#e1ed5e" stroke-width="0.3" x1="174.33088141563837" x2="178.70328620479359" y1="141.23008692659167" y2="143.65538615756765" /><path d="M 175.20536237346943 141.71514677278685 a86.0,86.0 0 0,1 -30.301960400862466,31.631185727798858" fill="none" id="id101" stroke="none" /><text fill="#e1ed5e" style="font-size:6.75px; font-family:Arial;" text-anchor="middle"><textPath startOffset="22.145653131862474" xlink:href="#id101">May</textPath></text><path d="M 118.18653347947321 110.5 l 4.680979654149064 2.7025648633941217 a26.405129726788246,26.405129726788246 0 0,0 -0.2300091625935055,0.390605842889716 l -4.6338967814257925 -2.7825218745773874" fill="#ff0f01" stroke="none" /><path d="M 118.00360718960297 110.81064883170644 l 8.812766832958678 5.291813271833943 a31.279501298995704,31.279501298995704 0 0,0 -0.28037162858713216,0.4579659845511849 l -8.72062723991614 -5.442316372509685" fill="#ff5808" stroke="none" /><path d="M 117.21940702142032 112.02048342749411 l 10.315179177135457 7.200796182827072 a33.57991999668622,33.57991999668622 0 0,0 -0.3340161085656955,0.4698354866809204 l -10.190047970039801 -7.376808896217496" fill="#ff790b" stroke="none" /><path d="M 115.6541949942343 113.99807769240083 l 8.177438927407964 7.312316313478922 a31.969980732884498,31.969980732884498 0 0,0 -0.3693328966589801,0.4059615510288334 l -8.050708329907104 -7.451615440065427" fill="#ff6209" stroke="none" /><path d="M 114.13192950727249 115.5334660781643 l 3.7053341933737904 4.072811357530092 a26.506114223171465,26.506114223171465 0 0,0 -0.33919618546573643,0.3033113206309352 l -3.634872981084676 -4.135818208044414" fill="#ff1101" stroke="none" /><path d="M 112.45986205192187 116.90419585922612 l 12.321793268106987 16.716879037103517 a41.76729722624294,41.76729722624294 0 0,0 -0.5808020921627446,0.42045592454567504 l -12.033010165570275 -16.925935733022268" fill="#ffe915" stroke="none" /><line stroke="#e1ed5e" stroke-width="0.3" x1="143.1302829299769" x2="145.66735839644613" y1="173.24464959558577" y2="177.55315839532614" /><path d="M 143.63769802327073 174.10635135553383 a86.0,86.0 0 0,1 -40.68552437913181,11.842963189579606" fill="none" id="id102" stroke="none" /><text fill="#e1ed5e" style="font-size:6.75px; font-family:Arial;" text-anchor="middle"><textPath startOffset="21.407464694133747" xlink:href="#id102">June</textPath></text><path d="M 110.65571695917076 118.09573695890943 l 6.8157530338057235 11.574638717340276 a34.43230251501151,34.43230251501151 0 0,0 -0.5119059140045683,0.2955490172503001 l -6.616054651940757 -11.689934631866747" fill="#ff850c" stroke="none" /><path d="M 108.07796709384702 119.3841803445677 l 2.753553963576348 6.607527116459668 a28.158315026951303,28.158315026951303 0 0,0 -0.4477782706497409,0.18210752447213446 l -2.6397212317361665 -6.653821897511094" fill="#ff2a04" stroke="none" /><path d="M 107.06938296918513 119.77432235084164 l 1.8537943103365773 5.18539261835706 a26.506800336996807,26.506800336996807 0 0,0 -0.42978154839535637,0.14950033235739604 l -1.7645069898961991 -5.216451383283046" fill="#ff1101" stroke="none" /><path d="M 101.08105385017728 120.97215588758144 l 0.6982666361067272 13.54618619703903 a34.56417106866286,34.56417106866286 0 0,0 -0.5928154297675455,0.025458045282019868 l -0.46562544573835213 -13.55617681074688" fill="#ff870c" stroke="none" /><line stroke="#e1ed5e" stroke-width="0.3" x1="101.45913802915013" x2="101.54496967792366" y1="184.9874750549273" y2="189.98673829345242" /><path d="M 101.47630435890484 185.9873277026323 a86.0,86.0 0 0,1 -42.54439059252881,-10.42667462771756" fill="none" id="id103" stroke="none" /><text fill="#e1ed5e" style="font-size:6.75px; font-family:Arial;" text-anchor="middle"><textPath startOffset="22.145653131862474" xlink:href="#id103">July</textPath></text><path d="M 100.0 121.0 l 1.0017192833827931e-15 8.179658690817867 a29.179658690817867,29.179658690817867 0 0,0 -0.5009076432163886,-0.004299689674623512 l 0.14041471836753547 -8.178453399337679" fill="#ff3905" stroke="none" /><path d="M 98.55909050195518 120.95050786540614 l -0.6499037245428883 9.44945752059231 a30.47178031230947,30.47178031230947 0 0,0 -0.5215477442210268,-0.040371093901171946 l 0.8120204635391511 -9.436908659696083" fill="#ff4c07" stroke="none" /><path d="M 98.19965949673042 120.92268563240118 l -0.37981824899026356 4.414063787733603 a25.430374817602587,25.430374817602587 0 0,0 -0.4346177440628705,-0.041158752233118864 l 0.45553555643814936 -4.406893279995301" fill="#ff0000" stroke="none" /><path d="M 96.05791012581884 120.62667999033965 l -1.7231175064866022 9.016078914089647 a30.179259933472444,30.179259933472444 0 0,0 -0.5080225928836787,-0.10161874657924608 l 1.877636584901239 -8.985170770847539" fill="#ff4806" stroke="none" /><path d="M 95.70440661134978 120.55596938700252 l -2.6300826412666147 12.585897539094487 a33.857766196524054,33.857766196524054 0 0,0 -0.5679037020827583,-0.12377196865507707 l 2.8457487599685094 -12.538894112305691" fill="#ff7d0b" stroke="none" /><path d="M 94.6519064749342 120.30758222061772 l -2.1745999267212905 8.2573101240406 a29.538855621561922,29.538855621561922 0 0,0 -0.4892458752516178,-0.13334613887959681 l 2.316027202907603 -8.218763491016858" fill="#ff3e05" stroke="none" /><line stroke="#e1ed5e" stroke-width="0.3" x1="58.13341422392154" x2="55.67067388415222" y1="173.97424548756322" y2="178.32567169271397" /><path d="M 57.64086615596768 174.84453072859336 a86.0,86.0 0 0,1 -31.369924170532247,-30.572349798747897" fill="none" id="id104" stroke="none" /><text fill="#e1ed5e" style="font-size:6.75px; font-family:Arial;" text-anchor="middle"><textPath startOffset="22.145653131862474" xlink:href="#id104">August</textPath></text><line stroke="#e1ed5e" stroke-width="0.3" x1="26.387840678322732" x2="22.057713659400548" y1="142.50000000000003" y2="145.00000000000006" /><path d="M 25.521815274538298 143.00000000000003 a86.0,86.0 0 0,1 -11.493303480769221,-40.785679425670985" fill="none" id="id105" stroke="none" /><text fill="#e1ed5e" style="font-size:6.75px; font-family:Arial;" text-anchor="middle"><textPath startOffset="21.40746469413373" xlink:href="#id105">September</textPath></text><line stroke="#e1ed5e" stroke-width="0.3" x1="15.003131293944662" x2="10.003315487706104" y1="100.72959589197737" y2="100.7725132973878" /><path d="M 14.003168132696942 100.73817937305945 a86.0,86.0 0 0,1 10.791469493833604,-42.45332614584628" fill="none" id="id106" stroke="none" /><text fill="#e1ed5e" style="font-size:6.75px; font-family:Arial;" text-anchor="middle"><textPath startOffset="22.145653131862435" xlink:href="#id106">October</textPath></text><line stroke="#e1ed5e" stroke-width="0.3" x1="26.387840678322718" x2="22.05771365940052" y1="57.49999999999999" y2="54.99999999999999" /><path d="M 25.521815274538284 56.99999999999999 a86.0,86.0 0 0,1 29.574782752854787,-30.34633250058573" fill="none" id="id107" stroke="none" /><text fill="#e1ed5e" style="font-size:6.75px; font-family:Arial;" text-anchor="middle"><textPath startOffset="21.40746469413373" xlink:href="#id107">November</textPath></text><line stroke="#e1ed5e" stroke-width="0.3" x1="56.869717070023135" x2="54.33264160355391" y1="26.7553504044142" y2="22.446841604673864" /><path d="M 56.362301976729285 25.89364864446614 a86.0,86.0 0 0,1 42.16139366436587,-11.88097634709845" fill="none" id="id108" stroke="none" /><text fill="#e1ed5e" style="font-size:6.75px; font-family:Arial;" text-anchor="middle"><textPath startOffset="22.145653131862474" xlink:href="#id108">December</textPath></text></svg>